<svg width="22" height="22" viewBox="0 0 32 32" xmlns="http://www.w3.org/2000/svg" shape-rendering="crispEdges">
  <rect x="8" y="6" width="16" height="4" fill="#d4956a"/>
  <rect x="6" y="2" width="2" height="6" fill="#d4956a"/>
  <rect x="24" y="2" width="2" height="6" fill="#d4956a"/>
  <rect x="6" y="10" width="20" height="10" fill="#d4956a"/>
  <rect x="10" y="12" width="2" height="2" fill="#1a1a2e"/>
  <rect x="12" y="14" width="2" height="2" fill="#1a1a2e"/>
  <rect x="8" y="14" width="2" height="2" fill="#1a1a2e"/>
  <rect x="18" y="12" width="2" height="2" fill="#1a1a2e"/>
  <rect x="20" y="14" width="2" height="2" fill="#1a1a2e"/>
  <rect x="16" y="14" width="2" height="2" fill="#1a1a2e"/>
  <rect x="12" y="17" width="2" height="2" fill="#1a1a2e"/>
  <rect x="14" y="18" width="4" height="2" fill="#1a1a2e"/>
  <rect x="18" y="17" width="2" height="2" fill="#1a1a2e"/>
  <rect x="8" y="20" width="4" height="4" fill="#d4956a"/>
  <rect x="14" y="20" width="4" height="4" fill="#d4956a"/>
  <rect x="20" y="20" width="4" height="4" fill="#d4956a"/>
  <rect x="26" y="0" width="6" height="6" fill="#4ade80"/>
  <rect x="27" y="3" width="2" height="2" fill="#fff"/>
  <rect x="29" y="1" width="2" height="2" fill="#fff"/>
</svg>
