<svg width="22" height="22" viewBox="0 0 32 32" xmlns="http://www.w3.org/2000/svg" shape-rendering="crispEdges">
  <rect x="8" y="4" width="16" height="4" fill="#d4956a"/>
  <rect x="4" y="6" width="2" height="4" fill="#d4956a"/>
  <rect x="26" y="6" width="2" height="4" fill="#d4956a"/>
  <rect x="6" y="8" width="20" height="10" fill="#d4956a"/>
  <rect x="10" y="10" width="2" height="2" fill="#1a1a2e"/>
  <rect x="12" y="12" width="2" height="2" fill="#1a1a2e"/>
  <rect x="12" y="10" width="2" height="2" fill="#1a1a2e"/>
  <rect x="10" y="12" width="2" height="2" fill="#1a1a2e"/>
  <rect x="18" y="10" width="2" height="2" fill="#1a1a2e"/>
  <rect x="20" y="12" width="2" height="2" fill="#1a1a2e"/>
  <rect x="20" y="10" width="2" height="2" fill="#1a1a2e"/>
  <rect x="18" y="12" width="2" height="2" fill="#1a1a2e"/>
  <rect x="8" y="18" width="4" height="4" fill="#d4956a"/>
  <rect x="14" y="18" width="4" height="4" fill="#d4956a"/>
  <rect x="20" y="18" width="4" height="4" fill="#d4956a"/>
  <rect x="26" y="0" width="6" height="6" fill="#f87171"/>
  <rect x="28" y="1" width="2" height="3" fill="#fff"/>
  <rect x="28" y="5" width="2" height="1" fill="#fff"/>
</svg>
